<?xml version="1.0" standalone="no"?>
<!DOCTYPE svg PUBLIC "-//W3C//DTD SVG 20010904//EN"
 "http://www.w3.org/TR/2001/REC-SVG-20010904/DTD/svg10.dtd">
<svg version="1.0" xmlns="http://www.w3.org/2000/svg"
 width="500.000000pt" height="500.000000pt" viewBox="0 0 500.000000 500.000000"
 preserveAspectRatio="xMidYMid meet">
<metadata>
Created by potrace 1.11, written by Peter Selinger 2001-2013
</metadata>
<g transform="translate(0.000000,500.000000) scale(0.100000,-0.100000)"
fill="#000000" stroke="none">
<path d="M2005 3534 c-107 -21 -208 -76 -285 -153 -84 -86 -131 -167 -177
-313 l-38 -118 -77 0 c-43 0 -78 1 -78 3 0 1 27 83 60 182 57 170 60 184 60
277 l0 98 -320 0 -320 0 0 -1010 0 -1010 320 0 320 0 0 450 c0 253 5 493 11
546 37 332 152 486 375 501 195 13 282 -48 320 -226 11 -52 14 -189 14 -668
l0 -603 324 0 325 0 4 518 c3 480 5 524 25 610 40 180 110 285 225 338 56 26
72 29 172 29 88 0 117 -4 145 -19 70 -37 99 -76 128 -171 13 -42 16 -148 19
-677 l4 -628 320 0 320 0 -4 663 c-3 580 -5 673 -21 751 -84 425 -277 628
-616 643 -348 16 -571 -169 -670 -554 l-11 -43 -59 0 -58 0 -7 43 c-12 73 -56
199 -94 272 -44 85 -137 183 -209 219 -123 62 -291 81 -447 50z"/>
</g>
</svg>
